<?xml version="1.0" encoding="UTF-8" standalone="no"?>
<!-- Created with Inkscape (http://www.inkscape.org/) -->

<svg
   version="1.1"
   id="svg1"
   width="1024"
   height="1024"
   viewBox="0 0 1024 1024"
   sodipodi:docname="Owl_Logo.svg"
   inkscape:version="1.3 (0e150ed6c4, 2023-07-21)"
   inkscape:export-filename="Own_Logo.png"
   inkscape:export-xdpi="96"
   inkscape:export-ydpi="96"
   xml:space="preserve"
   xmlns:inkscape="http://www.inkscape.org/namespaces/inkscape"
   xmlns:sodipodi="http://sodipodi.sourceforge.net/DTD/sodipodi-0.dtd"
   xmlns="http://www.w3.org/2000/svg"
   xmlns:svg="http://www.w3.org/2000/svg"><defs
     id="defs1" /><sodipodi:namedview
     id="namedview1"
     pagecolor="#ffffff"
     bordercolor="#000000"
     borderopacity="0.25"
     inkscape:showpageshadow="2"
     inkscape:pageopacity="0.0"
     inkscape:pagecheckerboard="0"
     inkscape:deskcolor="#d1d1d1"
     showgrid="false"
     inkscape:zoom="0.1767767"
     inkscape:cx="675.99408"
     inkscape:cy="379.00923"
     inkscape:current-layer="g1" /><g
     inkscape:groupmode="layer"
     inkscape:label="Image"
     id="g1"><g
       id="g2"><path
         id="path2"
         style="fill:#000000;fill-opacity:1;stroke:#000000;stroke-width:2;stroke-linecap:round;stroke-linejoin:round;stroke-opacity:1"
         d="M 512,83.732422 A 428.26822,428.26822 0 0 0 252.15039,172.91211 c -8.67022,-6.92601 -20.65251,-16.95753 -27.05859,-24.41406 -9.21579,-10.72698 -22.67578,-35.85938 -22.67578,-35.85938 0,0 -8.85971,36.80582 -8.49024,55.52539 0.19527,9.89357 5.64258,29.14453 5.64258,29.14453 0,0 -6.51335,-4.66028 -8.72656,-7.90039 -5.3156,-7.78192 -10.05274,-26.42578 -10.05274,-26.42578 0,0 -9.19049,35.77223 -9.15429,54.04297 0.02,10.07636 5.16601,29.78516 5.16601,29.78516 l 0.0508,0.0762 A 428.26822,428.26822 0 0 0 83.732422,512 428.26822,428.26822 0 0 0 512,940.26758 428.26822,428.26822 0 0 0 940.26758,512 428.26822,428.26822 0 0 0 847.42383,245.9043 c 0.62324,-2.43238 4.92281,-19.50792 4.9414,-28.87891 0.0362,-18.27074 -9.15429,-54.04297 -9.15429,-54.04297 0,0 -4.73714,18.64386 -10.05274,26.42578 -2.21321,3.24011 -8.72656,7.90039 -8.72656,7.90039 0,0 5.44731,-19.25096 5.64258,-29.14453 0.36947,-18.71957 -8.49024,-55.52539 -8.49024,-55.52539 0,0 -13.45998,25.1324 -22.67578,35.85938 -6.22517,7.24596 -17.69288,16.89878 -26.29687,23.79883 A 428.26822,428.26822 0 0 0 512,83.732422 Z" /><path
         id="path1-9"
         style="fill:#ffffff;fill-opacity:1;stroke:none;stroke-width:1.18787;stroke-opacity:1"
         d="m 210.07856,148.33987 0.5664,17.22461 c 0.3112,9.47325 1.3931,20.96578 2.4043,25.53906 7.4131,33.52446 27.0353,62.1308 59.3457,86.51953 27.704,20.91168 44.0877,29.03408 93.9571,46.57618 33.1111,11.64725 53.5038,23.48344 74.6523,43.33203 6.3567,5.96593 14.9511,15.09035 19.0996,20.27539 8.9689,11.20965 20.7505,31.65982 24.9141,43.2461 4.9455,13.76215 4.1565,12.88448 8.0664,8.97461 2.0856,-2.08558 3.4473,-4.70009 3.4473,-6.62305 0,-5.22086 -8.0813,-27.92741 -13.4278,-37.73047 -16.8965,-30.98114 -44.7199,-58.66108 -77.7851,-77.38281 -10.7118,-6.06504 -22.0047,-11.42139 -54.2383,-25.72657 -39.0545,-17.3322 -70.965,-44.46394 -103.9668,-88.39453 -11.531,-15.34956 -26.0012,-36.80515 -33.2461,-49.29688 z m 603.209,1.78125 c -0.3974,0 -1.6146,1.73801 -2.7031,3.86133 -4.5887,8.95103 -19.647,31.35933 -33.8086,50.31055 -29.5251,39.51101 -59.0906,66.19013 -91.375,82.45117 -5.5533,2.79709 -20.5818,9.74575 -33.3965,15.44336 -37.3002,16.5843 -55.5749,28.37998 -77.2148,49.83789 -23.7183,23.51882 -39.3436,49.25307 -45.8067,75.44336 -1.71,6.93832 -1.7097,7.7702 0.01,9.49024 1.0367,1.03676 1.564,2.72493 1.1699,3.75195 -0.7495,1.95315 2.0351,4.52299 3.3184,3.0625 0.4066,-0.4628 3.457,-7.1706 6.7793,-14.90625 13.989,-32.57288 36.8883,-60.0962 67.0234,-80.56055 10.3015,-6.99559 35.5004,-18.71817 55.5508,-25.8418 47.5183,-16.88263 66.3769,-26.78803 94.7695,-49.78125 14.5216,-11.75997 24.0209,-22.11641 34.5176,-37.62891 14.7437,-21.78896 20.2857,-39.21322 21.2539,-66.81835 0.3494,-9.96325 0.3114,-18.11524 -0.0859,-18.11524 z m -303.7246,37.41016 c -12.8996,0.0854 -25.3289,0.54343 -26.0879,1.30273 -0.9344,0.93488 0.0338,2.17546 3.4785,4.45508 6.707,4.43845 16.9901,17.32933 21.0196,26.35156 1.8737,4.19537 3.7101,7.64256 4.08,7.66016 0.3698,0.0176 2.2395,-3.27059 4.1563,-7.3086 4.4292,-9.33094 11.9829,-19.17707 19.625,-25.58203 l 5.9746,-5.00781 -3.3359,-0.93164 c -2.6403,-0.73679 -16.0106,-1.02485 -28.9102,-0.93945 z m -68.2051,7.13476 c -10.8408,0 -24.2603,2.3315 -22.6562,3.93555 0.3504,0.35038 4.2486,2.04189 8.664,3.75977 23.0023,8.94955 46.0326,33.13402 63.6348,66.82617 3.323,6.36036 6.4561,11.15135 6.9629,10.64453 0.5068,-0.50683 1.2385,-3.57422 1.6269,-6.81445 1.0135,-8.45474 1.6877,-10.02804 3.0274,-7.07813 2.5668,5.65199 -0.0763,-15.88798 -2.9629,-24.14648 -6.8124,-19.49005 -19.2063,-33.60507 -37.5098,-42.72071 -8.4408,-4.20368 -9.394,-4.40625 -20.7871,-4.40625 z m 138.9278,0.0293 c -7.7301,0.64763 -15.5234,2.63712 -21.836,5.83594 -7.9709,4.03918 -21.092,16.54229 -26.1211,24.89063 -5.6079,9.30922 -10.5789,24.65508 -11.3925,35.17187 -0.5141,6.64527 -0.3794,8.19628 0.5312,6.10156 1.0089,-2.32064 1.5277,-2.55368 2.9902,-1.33984 0.9735,0.80789 1.762,2.07193 1.752,2.80859 -0.01,0.73667 -0.5346,0.53663 -1.168,-0.44336 -0.6333,-0.98027 -1.1599,-1.42483 -1.1699,-0.98828 -0.01,0.43657 -0.3768,1.72659 -0.8145,2.86719 -0.583,1.51917 -0.3785,1.81654 0.7657,1.10938 1.186,-0.73298 1.4176,-0.20724 0.9609,2.18164 -0.3308,1.73041 -0.1408,3.14453 0.4219,3.14453 0.5627,0 1.0234,1.42578 1.0234,3.16797 0,3.91281 -0.1363,4.08171 5.4102,-6.73047 13.7774,-26.85745 32.269,-49.84094 49.6035,-61.6543 4.9564,-3.37775 14.9955,-8.37416 22.791,-11.34375 2.0495,-0.78071 1.7354,-1.13342 -2.291,-2.57031 -6.0591,-2.16229 -13.7269,-2.85662 -21.457,-2.20899 z m -391.0508,16.00781 c -0.367,0 -0.2977,2.80638 0.1543,6.23633 2.0638,15.66096 13.8262,40.6419 28.8496,61.26953 15.6164,21.44197 44.2413,47.62231 63.8828,58.42774 l 7.127,3.91992 -5.8692,-6.09961 c -3.2272,-3.35511 -5.5226,-6.44412 -5.1015,-6.86523 0.421,-0.4211 4.9326,1.66125 10.0253,4.62695 12.8199,7.46535 29.4563,14.72849 54.4766,23.78516 53.8352,19.48688 67.1155,26.8595 100.0918,55.56445 9.5869,8.34506 17.5501,15.2073 17.6973,15.25 0.1471,0.0428 -0.2497,-1.2859 -0.8828,-2.95117 -9.5769,-25.18897 -33.3445,-51.0897 -63.1485,-68.81836 -12.4283,-7.39293 -26.3339,-13.33133 -51.1719,-21.84961 -44.0905,-15.12097 -63.3902,-24.79964 -88.3867,-44.32813 -21.0693,-16.46039 -47.7316,-46.27737 -61.1328,-68.36719 -3.2699,-5.38996 -6.2443,-9.80078 -6.6113,-9.80078 z m 199.4609,1.27149 c -5.8037,-0.0819 -11.5737,0.3302 -15.8808,1.2539 -8.0189,1.71974 -16.4578,5.35276 -14.0762,6.06055 27.9354,8.30192 57.9761,20.38875 76.3828,30.73242 11.9487,6.71462 28.7369,17.91364 35.2773,23.5332 2.2866,1.96466 4.2626,3.5946 4.3926,3.6211 0.13,0.0266 -0.5941,-1.95626 -1.6094,-4.40625 -5.206,-12.56217 -25.674,-36.50487 -38.7539,-45.33203 -8.8354,-5.96264 -21.4892,-11.83362 -29.6503,-13.75782 -4.4411,-1.04709 -10.2784,-1.62317 -16.0821,-1.70507 z m 446.5059,0.01 c -0.0693,-0.92868 -1.8092,0.94287 -3.8653,4.1582 -14.6935,22.97677 -27.5371,38.83139 -45.082,55.65234 -30.2034,28.95724 -55.0718,43.36997 -103.3379,59.89063 -43.6006,14.92377 -64.9063,26.51574 -86.2636,46.93359 -12.8609,12.29504 -20.6163,22.22306 -27.3594,35.01953 -8.0652,15.30536 -7.6689,16.17157 2.8008,6.12891 5.1083,-4.89997 9.5724,-9.20564 9.9218,-9.57031 3.1339,-3.27036 18.1399,-15.10371 25.1543,-19.83594 18.5794,-12.5344 37.5451,-21.25649 72.8867,-33.51758 24.8117,-8.60796 41.1614,-15.64285 54.0547,-23.26172 6.0663,-3.58468 11.351,-6.19785 11.7422,-5.80664 0.3912,0.39121 -1.5574,2.82768 -4.3301,5.41407 -2.7728,2.58637 -5.0429,4.98088 -5.0429,5.32226 0,1.42879 14.4984,-7.26779 24.3867,-14.62891 9.7062,-7.22557 30.161,-26.55572 37.4355,-35.375 21.19,-25.68973 38.0773,-60.70994 36.8985,-76.52343 z m -203.125,0.0742 c -3.5469,0.15397 -7.0278,0.52643 -10.3028,1.1289 -8.8771,1.63299 -22.3159,7.78818 -31.8046,14.56641 -13.905,9.93279 -34.5066,34.01944 -38.8243,45.39258 l -1.3222,3.48437 3.3476,-3.08008 c 1.8415,-1.69394 7.892,-6.30625 13.4453,-10.24804 12.4148,-8.8121 27.0209,-16.85734 45.7325,-25.18946 14.7607,-6.57288 47.4573,-17.90625 51.6562,-17.90625 3.8341,0 2.7703,-1.96787 -2.123,-3.92578 -7.9423,-3.17785 -19.1642,-4.68455 -29.8047,-4.22265 z m -347.3692,4.59179 c -3.0629,-0.022 20.0646,23.65246 33.0957,33.87891 16.3716,12.84778 34.153,22.86622 55.8223,31.45117 51.5621,20.42785 92.1326,50.83282 117.1856,87.82422 3.4733,5.12856 6.4623,9.18917 6.6425,9.02344 0.1803,-0.16572 -2.8933,-6.97378 -6.83,-15.13086 -3.9369,-8.15705 -7.1583,-16.08868 -7.1583,-17.625 0,-2.69069 0.1561,-2.64243 4.2579,1.30078 2.342,2.25146 6.4172,7.71106 9.0566,12.13281 2.6394,4.42175 5.2679,8.3282 5.8398,8.68164 1.6513,1.02062 1.2086,-7.8552 -0.7714,-15.45703 -6.5886,-25.2954 -24.8635,-50.81471 -49.7188,-69.43164 -23.2303,-17.39982 -47.3944,-28.45035 -102.3008,-46.78321 -33.9141,-11.32372 -61.8399,-19.84173 -65.1211,-19.86523 z m 454.4258,0.29492 c -1.8304,-0.62632 -18.4065,4.16106 -53.1367,15.34571 -52.3736,16.86664 -83.9983,30.27089 -106.3145,45.06054 -14.5856,9.66642 -36.676,31.66412 -43.5195,43.3379 -9.9408,16.95716 -15.8005,34.0324 -15.8535,46.19726 l -0.0195,4.73047 2.7109,-4.13672 c 1.491,-2.27498 3.7612,-6.19494 5.0469,-8.71094 1.2857,-2.51597 4.7016,-7.0584 7.5898,-10.0957 8.2545,-8.68062 7.5151,-3.67176 -2.3105,15.6582 -9.3027,18.30046 -9.3158,19.04751 -0.0957,5.54493 24.3166,-35.61121 61.2855,-63.66757 112.3789,-85.29102 40.2736,-17.04444 52.96,-25.15295 77.2109,-49.34766 10.1802,-10.15657 17.1732,-17.99847 16.3125,-18.29297 z m -539.1601,52.4668 c -0.0116,0.20198 0.3275,0.89285 0.8339,1.87305 0.8437,1.63332 1.4356,3.10567 1.3165,3.27344 -0.1192,0.16776 1.1969,3.10767 2.9238,6.5332 7.2806,14.44223 27.0593,35.95939 42.0703,45.76758 8.5744,5.60252 9.2656,5.89347 6.9375,2.93164 -2.5392,-3.23048 -3.2849,-4.02826 -15.3848,-16.49414 -6.2576,-6.447 -17.1561,-18.67081 -24.2187,-27.16407 -11.2577,-13.5382 -14.4435,-17.32666 -14.4785,-16.7207 z m 624.1797,0.0566 c -0.2151,-0.21505 -5.7304,6.09889 -12.2559,14.0293 -6.5255,7.93038 -19.4811,22.13204 -28.791,31.56055 -9.3099,9.42852 -16.9278,17.37845 -16.9278,17.66601 0,0.85782 8.343,-4.46504 17.2247,-10.99023 10.1735,-7.47442 21.1926,-19.12678 28.9101,-30.57032 5.8499,-8.6742 12.5618,-20.97328 11.8399,-21.69531 z m -33.9376,99.02344 c -1.8583,-0.26585 -1.9432,1.32464 0.9883,4.94922 3.5985,4.44918 13.5947,19.18243 15.3145,22.57031 0.9355,1.84295 -1.3611,0.21216 -6.0528,-4.29687 -12.3779,-11.89579 -19.4141,-16.87459 -22.9062,-16.20704 -3.2713,0.62535 -3.2767,0.59911 1.7246,8.03125 18.9119,28.10354 29.2755,58.39688 30.5098,89.18164 0.7878,19.64847 -0.6823,31.78457 -5.8164,48.01758 -7.4049,23.41292 -18.4481,41.45501 -35.9473,58.73242 -17.2266,17.00838 -34.3802,26.99598 -59.5293,34.66016 -10.0144,3.05192 -11.9895,3.24032 -34.3828,3.29102 -22.6879,0.0513 -24.2353,-0.0948 -34.375,-3.23633 -19.9626,-6.18488 -34.3924,-15.14908 -55.4336,-34.4375 -4.7591,-4.36268 -9.0934,-7.93164 -9.6328,-7.93164 -3.55,-10e-6 14.2059,24.80248 24.2129,33.82226 20.4793,18.45896 48.8899,32.13462 75.2285,36.20899 3.92,0.60642 15.1454,0.92059 24.9453,0.69922 14.2511,-0.32191 20.0779,-0.99444 29.1035,-3.36133 30.3895,-7.96938 56.3684,-24.30768 75.3008,-47.35742 18.0244,-21.94425 28.4203,-44.06426 35.3652,-75.24805 2.5364,-11.38843 2.1209,-55.54428 -0.6425,-68.25391 -6.4932,-29.86315 -21.0713,-57.87473 -38.3282,-73.64648 -4.1578,-3.8 -7.7882,-5.92166 -9.6465,-6.1875 z m -559.0312,0.2168 c -1.8287,-0.0318 -16.6037,15.76515 -21.0918,22.55078 -10.8906,16.4653 -20.4427,40.48165 -24.332,61.17578 -3.0102,16.01907 -3.0442,48.90508 -0.0645,63.87109 10.7065,53.77362 44.4452,96.86317 90.8106,115.98047 8.1355,3.3544 28.6284,8.95907 36.5,9.98242 8.6294,1.1219 28.2406,0.6666 38.6093,-0.89648 37.8201,-5.70138 71.3238,-26.27223 90.6914,-55.68164 10.502,-15.94722 10.81,-18.38994 1.1329,-9.01563 -13.4963,13.07378 -16.0329,15.21326 -25.9219,21.85547 -20.0479,13.46574 -35.2895,18.35192 -60.125,19.27735 -20.261,0.75496 -31.779,-0.61894 -47.2656,-5.63868 -20.1847,-6.54247 -36.1176,-16.18273 -52.4844,-31.75781 -22.5037,-21.41523 -35.1684,-44.85498 -40.9082,-75.71094 -2.6664,-14.33394 -1.8435,-43.93248 1.6562,-59.58007 4.4331,-19.82043 14.4326,-43.21271 25.8692,-60.51758 2.2036,-3.33424 4.0058,-6.40136 4.0058,-6.81641 0,-0.41507 -1.4689,-0.66883 -3.2656,-0.5625 -4.0579,0.24019 -13.9199,7.55365 -21.7715,16.14453 -3.2695,3.57743 -6.1821,6.26707 -6.4726,5.97656 -0.7552,-0.75516 9.2355,-16.69452 14.4648,-23.07617 3.5838,-4.3735 4.0956,-5.58989 2.7129,-6.46484 -0.9368,-0.59279 -2.1749,-1.0857 -2.75,-1.0957 z m 113.5449,22.97265 c -1.3556,0.23822 -4.616,1.53195 -9.1406,3.76758 -7.5808,3.74573 -26.5066,18.21053 -29.3477,22.42969 -0.4545,0.67489 -1.2305,0.8241 -1.7226,0.33203 -0.4921,-0.49206 0.8387,-4.21894 2.957,-8.28125 5.7439,-11.01513 6.9427,-12.95337 8.6895,-14.06055 1.1812,-0.7487 1.2104,-1.01384 0.1113,-1.02734 -1.5017,-0.0184 -9.2394,6.43179 -14.2246,11.85937 -5.2794,5.74791 -13.4872,19.98723 -16.8594,29.2461 -8.6005,23.61465 -7.7766,49.00669 2.2656,69.85547 17.824,37.00518 61.9053,57.61708 101.4864,47.45312 7.1353,-1.83228 19.1733,-7.29347 18.207,-8.25976 -0.2897,-0.28971 -2.6852,0.2356 -5.3223,1.16601 -8.3194,2.93527 -22.8976,4.57811 -32.8906,3.70703 -13.6168,-1.18697 -30.4527,-6.80153 -36.6016,-12.20508 -3.1378,-2.75743 -1.4978,-3.74349 5.336,-3.20703 l 6.2168,0.48828 -4.1563,-3.16015 c -2.2866,-1.73819 -8.7683,-7.79738 -14.4023,-13.46485 -15.9654,-16.06018 -22.5343,-31.6793 -22.5352,-53.57812 -0.001,-29.84682 13.3892,-53.65708 39.6465,-70.49805 3.0936,-1.98417 3.6428,-2.80072 2.2871,-2.5625 z m -76.625,0.0137 c -0.9068,-0.90681 -11.9341,11.27503 -16.5761,18.31055 -13.4785,20.42749 -21.3974,55.14205 -18.6778,81.87891 3.8146,37.50041 23.1314,69.29853 54.8028,90.20898 16.3925,10.82298 30.9481,16.67893 48.1757,19.38477 11.2118,1.76096 35.2946,0.61162 45.5039,-2.17188 17.0425,-4.64656 30.8604,-12.17283 42.418,-23.10351 10.6802,-10.10086 9.3883,-10.61098 -5.0742,-2.03125 -29.7172,17.62948 -42.1192,13.02148 -42.1192,13.02148 0,0 11.7598,-6.19926 17.6915,-9.58008 8.3493,-4.7588 18.753,-12.37062 20.246,-15.16015 1.0631,-1.98654 -0.3569,-1.61519 -8.9218,2.34179 -19.0217,8.78803 -28.3969,10.9196 -48.6153,11.04493 -15.2559,0.0946 -19.1857,-0.28362 -27.3222,-2.6211 -30.7612,-8.83722 -52.3001,-28.02053 -65.3985,-58.24609 -7.0539,-16.27745 -9.0923,-25.99858 -9.2519,-44.125 -0.1842,-20.91497 2.5884,-32.35476 12.9043,-53.23047 6.852,-13.86612 7.1151,-14.67546 3.3496,-10.30859 -4.9283,5.71532 -14.1517,20.98909 -15.9317,26.38281 -1.3875,4.2039 -3.1196,5.02045 -4.2734,2.01367 -0.582,-1.51684 -0.9191,-1.57429 -1.7422,-0.29688 -0.6107,0.94791 -0.7266,-0.085 -0.2871,-2.57226 0.9213,-5.2141 5.7499,-16.40849 10.7598,-24.94531 6.6529,-11.33653 8.877,-15.65819 8.3398,-16.19532 z m 489.1406,0.55469 c -1.9419,-0.70243 -0.8545,2.76721 3.6856,9.84766 7.0685,11.0236 14.7519,26.80822 14.7519,30.30664 0,1.46597 -0.5361,2.9966 -1.1894,3.40039 -0.6533,0.40378 -1.1875,-0.0417 -1.1875,-0.99023 0,-0.94866 -0.7606,-2.0166 -1.6895,-2.37305 -0.929,-0.35648 -3.1383,-3.21988 -4.9121,-6.36328 -7.6485,-13.55486 -15.7689,-24.49048 -19.7793,-26.63672 -1.2371,-0.66211 0.5548,2.98481 4.2754,8.70312 20.0484,30.81303 23.764,65.34865 10.9024,101.33399 -5.8018,16.23271 -12.4593,26.77821 -24.3535,38.58008 -15.5129,15.39225 -30.3565,22.97218 -52.584,26.85351 -21.2879,3.71721 -46.5757,-0.32352 -67.3672,-10.76562 -6.0731,-3.05008 -11.2966,-5.29135 -11.6074,-4.98047 -1.1065,1.10647 11.7783,10.28023 20.4785,14.58008 4.8639,2.40385 8.8437,4.80637 8.8437,5.33984 0,0.53347 0.8086,0.66049 1.7969,0.28125 1.1222,-0.43061 3.2757,0.92515 5.7344,3.60937 2.1653,2.36394 4.2197,4.01268 4.5664,3.66602 0.3466,-0.34666 1.3064,0.18586 2.1328,1.18164 2.4352,2.93425 -7.7457,2.32036 -18.6231,-1.12305 -8.9591,-2.83612 -26.4921,-12.01208 -34.5878,-18.10156 -2.1663,-1.62938 -4.2124,-2.69001 -4.5469,-2.35547 -1.0833,1.08334 7.9057,10.10992 16.0215,16.08789 23.321,17.17815 52.7219,23.78878 82.6132,18.57617 37.5464,-6.54753 71.362,-31.64091 88.0274,-65.32226 3.5559,-7.18662 7.546,-17.04888 8.8672,-21.91602 10.8473,-39.95947 0.8578,-88.86623 -23.5957,-115.52734 -3.2537,-3.54744 -5.5088,-5.47112 -6.6739,-5.89258 z m -76.748,0.44727 c -0.6748,0.22494 1.8594,2.53345 5.6328,5.1289 24.7458,17.02078 37.1218,41.15071 35.8067,69.81446 -1.0082,21.97258 -7.7715,36.23759 -25.545,53.87695 -6.0432,5.99766 -10.9882,11.2517 -10.9882,11.67578 0,0.42413 1.1369,0.40945 2.5253,-0.0312 1.8951,-0.60148 2.3171,-0.39768 1.6934,0.8125 -0.4569,0.88665 -0.0642,0.67652 0.873,-0.4668 2.5735,-3.13978 3.767,-2.4911 1.5743,0.85547 -1.7991,2.7458 -1.7891,2.88288 0.1601,2.15235 1.7617,-0.66023 1.8526,-0.4962 0.5821,1.06836 -0.8262,1.01735 -4.8019,3.33111 -8.834,5.14062 -19.1804,8.60764 -35.9028,9.5397 -62.7188,3.49609 -5.289,-1.19201 4.6518,3.95664 11.8789,6.15235 5.9115,1.79595 15.3665,3.43513 22.1856,3.8457 1.4227,0.0856 6.7683,-0.41927 11.8789,-1.12109 33.9864,-4.66725 62.9393,-27.77921 73.5469,-58.71094 6.4942,-18.93761 4.9471,-48.08123 -3.5313,-66.51758 -6.39,-13.8952 -18.5497,-28.96317 -26.832,-33.24609 l -4.0742,-2.10547 1.9082,2.91016 c 1.0491,1.60125 4.0951,6.03568 6.7695,9.85351 4.8531,6.92799 6.2922,10.39921 3.2695,7.89063 -0.8767,-0.72768 -1.8995,-1.01842 -2.2715,-0.64649 -0.3719,0.37195 -4.7737,-2.75654 -9.7812,-6.95312 -8.8117,-7.38473 -23.2014,-15.71085 -25.709,-14.875 z m -302.623,15.29492 c -4.615,-0.004 -9.3206,0.55911 -14.1231,1.69141 -10.4065,2.4535 -16.2865,5.74384 -24.6953,13.81836 -18.1328,17.41198 -22.2771,44.3273 -10.293,66.85546 4.2738,8.03403 16.0271,19.51748 24.0684,23.51758 14.0498,6.98897 30.5668,8.73474 43.7715,4.625 10.0726,-3.13495 16.684,-7.31033 23.6601,-14.94336 10.9393,-11.9693 15.2781,-25.0746 14.1719,-42.80664 -1.6027,-25.69173 -17.4242,-44.48006 -42.9824,-51.04297 -4.4402,-1.14016 -8.9632,-1.71084 -13.5781,-1.71484 z m 272.6543,0.17383 c -33.9191,-2.16627 -60.7676,22.95974 -60.6348,56.74218 0.0858,21.835 11.0592,40.86879 28.6933,49.76758 11.0804,5.59155 24.2788,7.30956 37.25,4.84961 9.9916,-1.89487 20.5952,-7.49682 28.5469,-15.08008 12.2534,-11.6855 17.6504,-24.13276 17.6504,-40.70703 0,-30.0013 -21.9517,-53.68473 -51.5058,-55.57226 z m 63.7324,3.73242 c -0.2153,0.0949 -0.3477,0.32593 -0.3477,0.67187 0,0.69189 0.5342,1.25977 1.1875,1.25977 0.6533,0 1.1875,-0.23728 1.1875,-0.52539 0,-0.2881 -0.5342,-0.85403 -1.1875,-1.25781 -0.3266,-0.20193 -0.6245,-0.24344 -0.8398,-0.14844 z m -333.7735,5.88476 c 1.7582,-0.12941 3.5169,-0.12125 5.3067,0.0215 2.3864,0.19034 4.8275,0.6192 7.3965,1.27734 17.4419,4.46844 29.8278,17.71622 33.0976,35.4043 1.415,7.65435 0.0312,19.1573 -3.0234,25.13086 -9.1971,17.98554 -30.4491,28.1066 -50.086,23.85156 -16.9551,-3.67397 -29.6214,-17.04253 -33.3789,-35.23242 -3.6783,-17.80711 6.3817,-36.812 24.0645,-45.46094 6.0806,-2.97411 11.3487,-4.60389 16.623,-4.99219 z m 257.8145,0.0938 c 16.6551,-1.03022 33.6192,8.32911 42.5781,26.52734 3.2716,6.64561 3.761,8.88239 3.791,17.33398 0.0263,7.32274 -0.617,11.34794 -2.625,16.41016 -7.0397,17.74767 -25.8337,28.311 -45.7754,25.72656 -14.5468,-1.8853 -28.6197,-11.7927 -34.8906,-24.5625 -2.8555,-5.81486 -3.2788,-8.07354 -3.2558,-17.375 0.0321,-13.08503 3.2266,-21.02888 12.3281,-30.65234 7.9749,-8.4323 17.8565,-12.79008 27.8496,-13.4082 z m -126.2246,75.53906 c -2.822,0 -5.0528,5.36499 -5.0528,12.15429 v 5.24415 l -3.6035,-3.36524 c -7.3551,-6.87068 -14.4358,-5.71225 -7.6406,1.25 3.978,4.07573 6.4568,9.24354 8.3418,17.38477 l 0.8262,3.5625 -2.293,-3.66797 c -3.3156,-5.30775 -8.452,-8.97776 -11.9883,-8.56446 -4.1335,0.48309 -4.5355,4.02461 -0.8984,7.89649 3.629,3.86322 7.9373,10.92032 7.9472,13.00586 0.002,0.94147 -2.118,0.0796 -5.4472,-2.21094 -3.7941,-2.61039 -5.8309,-3.37224 -6.6953,-2.50781 -0.8136,0.81361 -1.0233,7.51936 -0.6055,19.43359 0.8362,23.84357 4.4175,36.95246 17.0527,62.43945 4.9394,9.96325 9.4379,18.11524 9.9981,18.11524 0.5602,0 3.5691,-4.67793 6.6855,-10.39453 11.5459,-21.1789 18.0551,-39.64581 20.6211,-58.50195 1.5985,-11.74629 0.5553,-32.07227 -1.6465,-32.07227 -0.7673,0 -3.3898,1.35484 -5.8281,3.01172 -2.8394,1.92943 -4.4297,2.46281 -4.4297,1.48437 0.006,-2.14081 3.9075,-8.30207 7.5879,-11.98242 3.5621,-3.56212 3.79,-4.71586 1.332,-6.75586 -2.7248,-2.26142 -7.2976,-0.46847 -12.5156,4.9082 l -4.7168,4.86133 1.6778,-4.75586 c 2.434,-6.89873 4.7859,-11.10866 8.3437,-14.9414 2.4787,-2.67016 2.8481,-3.73283 1.7559,-5.04883 -2.0079,-2.4193 -2.9519,-2.12864 -8.0645,2.49023 -2.531,2.28665 -4.8033,4.15867 -5.0508,4.15821 -0.2474,-4.6e-4 -0.4891,-2.53973 -0.5371,-5.64258 -0.1035,-6.68577 -2.1224,-10.98828 -5.1562,-10.98828 z m 57.8379,135.9978 c -0.6729,-0.21886 -0.2175,1.14978 1.4941,5.44922 1.4108,3.54359 2.8538,7.70546 3.207,9.24805 0.5725,2.50096 0.336,2.70924 -2.1933,1.92773 -1.56,-0.48204 -4.2807,-1.61057 -6.0449,-2.50781 -3.7986,-1.93185 -5.8572,-2.13148 -3.3243,-0.32226 1.4315,1.02251 1.2547,1.15809 -0.8925,0.6875 -3.17,-0.69476 -3.5818,2.04461 -0.8516,5.65429 0.9592,1.2682 1.7441,2.79494 1.7441,3.39258 0,0.61723 -4.7473,0.85682 -10.9882,0.55274 -7.3812,-0.35962 -11.9622,-0.0499 -13.9571,0.94336 -6.4719,3.22236 -19.7021,22.86377 -24.3496,36.15039 l -1.459,4.17187 -3.7812,-8.30469 c -8.8576,-19.45201 -19.5514,-32.91965 -26.5235,-33.40234 -2.1208,-0.14682 -4.1271,0.0895 -4.4589,0.52539 -0.3318,0.43589 -4.7765,0.61663 -9.877,0.40039 l -9.2734,-0.39453 3.041,-3.98828 c 2.0255,-2.65559 2.6011,-4.25977 1.7226,-4.80274 -0.9274,-0.57312 -0.8507,-1.10592 0.2579,-1.79101 0.8673,-0.53614 1.2749,-1.27779 0.9043,-1.64844 -0.3707,-0.37065 -3.7115,0.66879 -7.4239,2.31055 -3.7123,1.64178 -7.2042,2.98633 -7.7578,2.98633 -0.5536,0 0.2822,-3.54642 1.8555,-7.88086 1.5733,-4.33442 2.5876,-8.15256 2.2558,-8.48438 -0.3319,-0.33183 -3.6207,2.01274 -7.3105,5.20899 -10.0038,8.66563 -18.356,14.2177 -32.9063,21.8789 l -13.1015,6.89844 5.2441,1.30664 c 16.517,4.11671 41.938,15.86413 57.1465,26.4082 17.5105,12.13999 35.817,30.77378 45.5684,46.38282 1.9238,3.07944 3.7837,5.61867 4.1328,5.64257 0.3491,0.0239 1.5567,-1.51366 2.6816,-3.41797 5.0497,-8.54845 17.36,-23.4233 26.8457,-32.4375 18.5872,-17.66318 39.3443,-29.8097 66.9024,-39.14843 l 14.7558,-5 -8.2636,-3.96094 c -9.3714,-4.49112 -24.935,-14.43379 -32.877,-21.00195 -2.94,-2.43138 -6.1653,-5.05559 -7.166,-5.83203 -1.0007,-0.77649 -2.7705,-2.17325 -3.9336,-3.10352 -0.4704,-0.37624 -0.8206,-0.62437 -1.0449,-0.69727 z m 221.6992,16.8418 c -0.4674,0.28152 -0.9969,1.28447 -1.5996,2.97852 -0.7729,2.17281 -3.4684,9.89299 -5.9883,17.15625 -4.4259,12.75675 -10.0948,25.40039 -11.3887,25.40039 -0.3451,0 -0.3603,-1.73803 -0.0351,-3.86133 0.3251,-2.12332 0.9035,-10.54239 1.2871,-18.70899 0.6927,-14.74818 0.6843,-14.82277 -1.4688,-11.2832 -3.0221,4.96822 -16.3296,35.31219 -20.5117,46.77149 -4.0534,11.10671 -8.0705,26.67782 -12.4473,48.2578 -1.7227,8.49325 -4.7009,21.69169 -6.6191,29.33008 -1.9182,7.63838 -3.4883,14.23061 -3.4883,14.65039 0,1.37754 8.7368,-6.1775 18.1856,-15.72657 12.2293,-12.35914 22.1924,-26.47724 29.9961,-42.5078 13.1461,-27.00545 17.8845,-48.02323 16.83,-74.66015 -0.5142,-12.98994 -1.3498,-18.64145 -2.7519,-17.79688 z m -560.5684,0.51367 c -0.7011,0.70141 -1.1705,9.09716 -1.1425,20.4336 0.0384,15.54919 0.5724,21.63644 2.7812,31.71484 7.5608,34.49871 28.6187,70.72247 53.3242,91.72656 4.3952,3.73671 8.1485,6.3374 8.3418,5.77735 0.1933,-0.56003 -1.0384,-6.50517 -2.7383,-13.21095 -1.6998,-6.70578 -5.4517,-23.73888 -8.3379,-37.84961 -7.0695,-34.56325 -10.8908,-45.31393 -28.746,-80.89062 l -5.0684,-10.09765 0.6191,10.69141 c 0.3398,5.87996 0.9176,14.56609 1.2852,19.30273 0.3676,4.73661 0.2041,8.61133 -0.3652,8.61133 -1.0313,0 -5.3221,-10.53198 -14.129,-34.6875 -3.0963,-8.49236 -5.0291,-12.31686 -5.8242,-11.52149 z m 56.4199,28.02735 v 2.92968 c 0,4.11757 9.4368,22.13721 17.5333,33.48047 8.6167,12.0722 25.3237,28.80148 39.6679,39.72266 21.4569,16.33644 62.1941,45.20876 63.3692,44.91211 0.6533,-0.16495 1.5355,-3.19669 1.9609,-6.73828 2.062,-17.16709 0.6461,-42.75494 -3.1777,-57.43555 -4.6863,-17.99164 -15.6261,-37.30453 -28.1211,-49.64258 -8.8944,-8.78262 -11.538,-8.32393 -7.1563,1.24024 2.8611,6.24491 3.881,13.61909 2.127,15.37304 -0.4081,0.40811 -2.2951,-1.14583 -4.1953,-3.45117 -3.6474,-4.42492 -16.2612,-13.70758 -17.2637,-12.70508 -0.3242,0.3242 3.2248,6.96028 7.8867,14.74805 8.8235,14.73959 17.6325,33.86987 20.0879,43.62109 1.7441,6.92652 0.8214,8.38444 -1.9121,3.01954 -6.0675,-11.9084 -31.0728,-43.43246 -44.9473,-56.66407 l -5.4316,-5.17968 -1.4102,3.39647 c -0.7758,1.86819 -1.2652,6.07124 -1.0879,9.3379 l 0.3223,5.9375 -3.2363,-2.96875 c -1.78,-1.63333 -6.1417,-6.58941 -9.6934,-11.01367 -3.5517,-4.42428 -7.006,-7.70495 -7.6758,-7.29102 -0.7623,0.47118 -0.9144,3.3672 -0.4062,7.7461 0.5304,4.56984 0.3831,6.99414 -0.4238,6.99414 -0.6793,0 -3.6115,-3.07346 -6.5176,-6.83008 -2.9062,-3.75665 -6.4124,-8.11364 -7.791,-9.68359 z m 449.004,1.70703 c -0.9931,-0.33195 -3.8631,2.77555 -8.7129,9.38672 -3.8186,5.20539 -7.4262,9.16627 -8.0176,8.80078 -0.5914,-0.36551 -1.0838,-2.90451 -1.0938,-5.64259 -0.0311,-8.56723 -1.3799,-8.77289 -7.6992,-1.17382 -3.1496,3.78747 -7.379,8.32338 -9.3984,10.08007 -3.6703,3.19285 -3.671,3.19288 -4.3731,0.59375 -0.3862,-1.43003 -0.216,-3.23486 0.3789,-4.00976 1.3623,-1.77441 -1.0868,-6.68281 -2.8046,-5.62109 -0.6745,0.41687 -0.3547,-1.03721 0.7109,-3.23242 1.3236,-2.7267 1.4068,-3.33224 0.2637,-1.91211 -0.9204,1.14333 -2.1988,2.07812 -2.8418,2.07812 -1.9484,0 -21.4193,21.61887 -30.1231,33.44532 -4.4932,6.10526 -10.8588,15.60783 -14.1445,21.11718 -4.8298,8.09829 -5.9746,9.39963 -5.9746,6.79297 0,-7.22977 10.8687,-32.92764 21.1054,-49.90039 5.8173,-9.64534 5.6563,-12.43467 -0.5214,-8.96485 -2.2916,1.28707 -5.8555,3.92432 -7.92,5.85938 -2.0644,1.93505 -4.1545,3.52044 -4.6445,3.52344 -1.2996,0.008 -1.0773,-8.18575 0.3633,-13.37305 1.8109,-6.52085 0.4365,-7.32957 -5.0176,-2.95313 -6.5498,5.2557 -18.9235,24.35173 -23.2812,35.93164 -7.0712,18.79049 -10.2311,42.68961 -8.4825,64.14454 0.4793,5.87995 0.9177,11.92138 0.9746,13.42382 0.126,3.32849 -3.2405,5.40723 32.0567,-19.78711 43.6956,-31.18896 62.0618,-48.11613 76.709,-70.6953 7.4323,-11.4571 10.6102,-17.57318 12.2715,-23.61328 0.7322,-2.66254 0.8126,-4.09968 0.2168,-4.29883 z m -121.9024,20.17577 c -0.2932,0.49549 -0.8311,1.61306 -1.582,3.22267 -2.1857,4.68506 -2.5666,4.97639 -4.2754,3.26757 -1.0315,-1.03155 -2.4036,-1.875 -3.0488,-1.875 -0.6452,0 -0.8249,-0.56312 -0.4004,-1.25 1.1262,-1.82229 -7.6022,2.02857 -12.9141,5.69726 -6.419,4.43331 -13.3171,12.60513 -16.7305,19.82032 -3.7292,7.88287 -5.3176,17.86303 -5.7128,35.8789 l -0.3165,14.41211 7.7207,-6.85742 c 4.2466,-3.77142 10.7511,-10.03878 14.4551,-13.92773 5.9849,-6.28373 7.0845,-8.24808 9.8789,-17.65235 1.7295,-5.82027 5.3184,-16.99795 7.9746,-24.83789 4.4952,-13.26772 5.831,-17.38494 4.9512,-15.89844 z m -201.2226,0.0918 c -1.1381,-0.29039 -1.0549,0.1549 -0.4336,1.16015 0.5883,0.95193 0.1945,1.13635 -1.25,0.58202 -1.5331,-0.58818 -1.9295,-0.34448 -1.4532,0.89649 0.3603,0.93912 3.8497,11.31028 7.7539,23.04492 3.9042,11.73464 8.0204,23.13325 9.1465,25.33008 1.7936,3.49875 24.8098,27.15625 26.42,27.15625 0.3354,-10e-6 0.2779,-7.88294 -0.127,-17.51953 -0.8134,-19.3618 -2.6375,-27.50653 -8.0859,-36.08984 -5.3004,-8.35002 -15.5732,-17.39453 -24.2012,-21.30664 -4.2707,-1.93641 -6.6315,-2.96351 -7.7695,-3.2539 z m 197.3632,2.14648 c -0.6533,0 -1.518,0.53417 -1.9218,1.1875 -0.4038,0.65332 -0.2002,1.18945 0.4531,1.18945 0.6533,0 1.5181,-0.53612 1.9219,-1.18945 0.4038,-0.65333 0.2002,-1.1875 -0.4532,-1.1875 z m -131.4004,40.02929 -0.3671,5.64649 c -0.2019,3.10611 0.1354,7.99848 0.748,10.87109 1.4356,6.73104 -0.8051,7.09346 -4.7383,0.76757 l -2.7695,-4.45312 -0.3652,7.7207 c -0.8861,18.73775 4.7207,40.52184 14.6621,56.9668 6.6602,11.01716 25.4287,33.90561 26.6562,32.50781 0.4727,-0.53817 4.8842,-6.05707 9.8028,-12.26367 22.3751,-28.23489 28.3211,-43.46592 28.1445,-72.09961 -0.0753,-12.21147 -0.341,-14.50602 -1.3477,-11.64453 -3.3175,9.43084 -5.8003,7.73724 -4.6426,-3.16602 1.4076,-13.25604 0.4786,-13.29472 -9.4179,-0.39648 -16.5013,21.50629 -18.7993,26.52529 -21.5274,47.01562 -0.7757,5.82663 -1.7739,10.59571 -2.2168,10.59571 -0.4429,0 -1.4686,-4.94499 -2.2793,-10.98828 -1.6802,-12.52407 -4.8039,-22.81727 -8.8906,-29.29102 -1.5468,-2.45031 -7.0053,-9.70605 -12.1308,-16.12305 z m -161.7753,23.67774 c -0.2962,0.23253 -0.3692,0.93096 -0.3692,2.21093 0,1.63884 -0.4841,2.97853 -1.0762,2.97853 -0.5922,0 -0.7954,1.07817 -0.4511,2.39453 0.4877,1.86504 0.1876,2.22452 -1.3594,1.63086 -1.6693,-0.64056 -1.8571,-0.21871 -1.1836,2.65429 2.6451,11.28352 8.2138,24.45842 13.8438,32.74804 13.4213,19.76173 28.6425,32.80486 54.371,46.58985 10.7095,5.73801 11.879,6.15578 11.879,4.24219 0,-4.57021 -5.2452,-32.7944 -7.1954,-38.7168 -4.4053,-13.37866 -12.3158,-22.67657 -24.5214,-28.82422 l -4.9903,-2.51367 1.6426,5.04297 c 7.5439,23.16767 8.8617,27.48588 8.498,27.84961 -0.4206,0.42052 -21.3937,-28.11563 -27.4296,-37.32032 -1.8072,-2.75578 -4.1621,-5.30657 -5.2325,-5.66797 -1.0702,-0.36138 -4.351,-3.51745 -7.291,-7.01367 -2.9399,-3.49618 -6.2805,-6.963 -7.4238,-7.70508 -0.8929,-0.57957 -1.4145,-0.8126 -1.7109,-0.58007 z m 388.1582,0.0898 c -0.5001,-0.51856 -2.979,1.62007 -5.5079,4.75194 -2.529,3.13188 -5.2853,6.12012 -6.125,6.64258 -0.8398,0.52246 -1.5273,1.79084 -1.5273,2.81836 0,1.36464 -0.4024,1.53529 -1.4922,0.63086 -1.6272,-1.35052 -6.0471,4.42635 -24.289,31.73632 -5.4196,8.11363 -9.8536,14.10403 -9.8536,13.3125 0,-1.17698 8.3129,-27.68973 10.3965,-33.1582 0.7567,-1.98587 -7.0215,2.44954 -13.8242,7.88477 -5.935,4.74198 -10.9986,12.16852 -14.2832,20.94726 -1.7489,4.67447 -8.4238,36.58631 -8.4238,40.27344 0,1.23221 0.9378,0.87792 11.0156,-4.16797 17.1323,-8.57798 29.3655,-17.3142 41.252,-29.45897 12.7231,-12.99978 17.7054,-20.6233 23.2109,-35.5215 4.505,-12.19092 5.8141,-18.13226 3.9062,-17.72069 -0.7301,0.1575 -1.8273,-1.58445 -2.4375,-3.8711 -0.6101,-2.28665 -1.5175,-4.58105 -2.0175,-5.0996 z m -275.5997,34.79686 c -1.0491,0 -1.2295,1.85007 -0.6679,6.83008 1.0012,8.87815 3.1241,16.52322 9.7422,35.08398 2.9782,8.3525 5.1552,15.44632 4.8379,15.76368 -0.3174,0.31736 -1.9177,-1.43908 -3.5547,-3.90235 -4.7607,-7.16365 -13.0387,-15.836 -22.918,-24.0078 l -9.1797,-7.59375 0.8809,7.62305 c 3.3379,28.89899 14.2962,43.58501 44.6093,59.7871 l 10.0254,5.35938 0.9043,-3.22461 c 0.4973,-1.7727 1.2461,-10.78315 1.6641,-20.02345 1.125,-24.87007 -2.3265,-37.96268 -13.8438,-52.53319 -4.9788,-6.29874 -20.0826,-19.16211 -22.5,-19.16212 z m 164.3028,0 c -1.5986,0 -12.0811,8.49844 -17.8438,14.46681 -10.6629,11.0437 -16.4996,23.35459 -18.2011,38.39258 -0.8349,7.37874 0.4406,36.76252 1.7675,40.71483 0.6743,2.00862 10.8879,-3.14795 25.2286,-12.74023 15.529,-10.38723 22.3039,-19.02628 26.7968,-34.16993 2.2934,-7.72988 3.8811,-22.90625 2.3965,-22.90625 -1.6325,0 -19.7113,16.44995 -24.8027,22.56836 -2.4465,2.93999 -5.7873,7.36095 -7.4238,9.82422 -1.6366,2.46326 -3.19,4.26512 -3.4512,4.00391 -0.2612,-0.26121 2.2572,-7.88919 5.5976,-16.95117 8.2235,-22.30971 13.029,-43.20313 9.9356,-43.20313 z m -108.6836,54.64258 c -2.6765,0 -2.9626,18.32603 -0.4727,30.29101 2.3618,11.34877 9.7557,25.46284 19.2071,36.66797 l 7.8847,9.34961 3.9903,-4.59765 c 2.195,-2.52842 6.8979,-8.88753 10.4492,-14.13282 9.5405,-14.09135 13.7804,-27.60868 13.8144,-44.04101 0.0144,-6.94152 -0.3042,-12.95075 -0.707,-13.35352 -0.771,-0.77099 -15.9808,14.47615 -23.5176,23.57422 l -4.4277,5.34375 -2.4766,-2.96875 c -7.4754,-8.96476 -23.0742,-26.13281 -23.7441,-26.13281 z"
         sodipodi:nodetypes="cccssscssscsssscsssssscssscssssssssssssscccssscsssssssssssssscsssssssssssssccccscssscssssssscsssssssscssssscsssssssssssccccsssssscssscsssssssssssscccsscssssscccsscsssssssssssssscsssssssssssssssssscccsssscssssscssssssssssssssssccssssscccscsssccssssscssssssssscssssssssssscsssssscssssssssscsssssssssssscsssssssssscccssssssssssssssssssssssssssssssssssscssssscssscssssccscccsscssssscssscssccsssssssssssssssssscccsscccsssssssssccssssscccsssssssssssssssssssssssssscccsssscsssssssssssssscccsccsssssccssssssssssssssssssssssssssssssssssscccsssssssssssssssssssscssccssscscssssssccsssssssssssccssssssssssssssssssssssssssssccccccssssssssssssscssscccssscccs" /></g></g></svg>
